<?xml version="1.0" encoding="utf-8"?>
<!-- Generator: Adobe Illustrator 26.5.0, SVG Export Plug-In . SVG Version: 6.00 Build 0)  -->
<svg version="1.1" xmlns="http://www.w3.org/2000/svg" xmlns:xlink="http://www.w3.org/1999/xlink" x="0px" y="0px"
	 viewBox="0 0 179.5 179.5" style="enable-background:new 0 0 179.5 179.5;" xml:space="preserve">
<style type="text/css">
	.st0{fill-rule:evenodd;clip-rule:evenodd;fill:#EEF2F5;}
	.st1{fill:url(#SVGID_1_);}
	.st2{fill:url(#SVGID_00000001663554608050861230000000989132726879237560_);}
	.st3{fill:url(#SVGID_00000043457203471700888580000016458928849650238617_);}
	.st4{fill:url(#SVGID_00000162313915117985124660000002957886551741728936_);}
	.st5{fill:url(#SVGID_00000008144468978237461490000010388730017775970688_);}
	.st6{fill:url(#SVGID_00000013896195391574029850000005433521152924641212_);}
	.st7{fill:url(#SVGID_00000085245931345155825050000006882143395115455649_);}
	.st8{fill:url(#SVGID_00000048488931990839560250000006594263324699895221_);}
	.st9{fill:url(#SVGID_00000056391636755133437580000006540243101414996620_);}
	.st10{fill:url(#SVGID_00000006689718879142410940000012864023009941906340_);}
	.st11{fill:url(#SVGID_00000011738208491226919090000000668310981081877911_);}
	.st12{fill:url(#SVGID_00000007395704462551093030000008374422443728433580_);}
	.st13{fill:url(#SVGID_00000123405545866132434510000002879596027599176854_);}
	.st14{fill:url(#SVGID_00000168091710268431271720000001149489112418835591_);}
	.st15{fill:url(#SVGID_00000148635527360608883540000010462542912898275263_);}
	.st16{fill:url(#SVGID_00000016764092292170403750000002201174007663011204_);}
	.st17{fill:url(#SVGID_00000071523672466786759510000008675218777817020059_);}
	.st18{fill:url(#SVGID_00000124875447829270438020000009507499175675446935_);}
	.st19{fill:url(#SVGID_00000052786859094829294630000001455547982332728720_);}
	.st20{fill:url(#SVGID_00000178889110793661503350000009347436385328215686_);}
	.st21{fill:url(#SVGID_00000167358660522503987890000003313482680814628012_);}
	.st22{fill:url(#SVGID_00000043453231480475854340000009490740586368166559_);}
	.st23{fill:url(#SVGID_00000070824843282514481360000003975666722507490951_);}
	.st24{fill:url(#SVGID_00000176754341185862132480000001117100733892831908_);}
	.st25{fill:url(#SVGID_00000037680097546703115480000008815536764539816832_);}
	.st26{fill:url(#SVGID_00000113345004681872202470000005691283212295655554_);}
	.st27{fill:url(#SVGID_00000170990378654956961020000012276078285117768120_);}
	.st28{fill:none;stroke:#000D20;stroke-width:4;stroke-miterlimit:10;}
	.st29{fill:#000D20;}
	.st30{fill:#FAFCFB;}
	.st31{fill:url(#SVGID_00000150092436931510386940000002715689269226695314_);}
	.st32{fill:url(#SVGID_00000086666284644312442500000006253706223113965486_);}
	.st33{fill:url(#SVGID_00000083046594498338416630000000951535209930222509_);}
	.st34{fill:url(#SVGID_00000149378493416138213310000014793244426213918350_);}
	.st35{fill:url(#SVGID_00000057857063467378498870000013220349424153701044_);}
	.st36{fill:url(#SVGID_00000034805469999187617200000003482117924694237859_);}
	.st37{fill:url(#SVGID_00000136375556304832707100000007043367946733318787_);}
	.st38{fill:url(#SVGID_00000096741077495598394730000013433048685420400822_);}
	.st39{fill:url(#SVGID_00000146474729366027919370000017331327698865097886_);}
	.st40{fill:url(#SVGID_00000060730131675781161760000016090612986774543803_);}
	.st41{fill:url(#SVGID_00000136369450269703778470000017029969384055225268_);}
	.st42{fill:url(#SVGID_00000011000499042493172160000015007828359544033943_);}
	.st43{fill:url(#SVGID_00000136371232832051486740000007766880252171810944_);}
	.st44{fill:url(#SVGID_00000121978442362600876180000007311122272416984222_);}
	.st45{fill:url(#SVGID_00000106845173814662193530000013021220191132373122_);}
	.st46{fill:url(#SVGID_00000054956175746741406910000003336068551899796415_);}
	.st47{fill:url(#SVGID_00000067959264791578646690000013054627092027645842_);}
	.st48{fill:url(#SVGID_00000170249610927386304280000001811880598653406374_);}
	.st49{fill:url(#SVGID_00000171714406028624435470000008419215281428644268_);}
	.st50{fill:url(#SVGID_00000034060302142294273890000010611370294717604540_);}
	.st51{fill:url(#SVGID_00000112608798492744112060000002555384350764506782_);}
	.st52{fill:url(#SVGID_00000082338457422319764810000003088466796450354305_);}
	.st53{fill:url(#SVGID_00000155832389283010292050000012318778397066636445_);}
	.st54{fill:url(#SVGID_00000121267111170793357570000015100538500802270907_);}
	.st55{fill:url(#SVGID_00000088123976316653100230000004347843736129181877_);}
	.st56{fill:url(#SVGID_00000100359366765248669890000010090785106657216394_);}
	.st57{fill:url(#SVGID_00000103248390539353251640000005353244063602471071_);}
	.st58{fill:url(#SVGID_00000016068997261466658170000009216752696517507209_);}
	.st59{fill:url(#SVGID_00000181052948495466594610000015217023931412005042_);}
	.st60{fill:url(#SVGID_00000176028255656579917620000001033227041463526075_);}
	.st61{fill:url(#SVGID_00000132789102607176915930000001313619973540245405_);}
	.st62{fill:url(#SVGID_00000024690310729452473320000013707215120724666761_);}
	.st63{fill:url(#SVGID_00000116222485867920157410000009718497777915402914_);}
	.st64{fill:url(#SVGID_00000128459361931119123340000012877056008596247953_);}
	.st65{fill:url(#SVGID_00000116939414310768840590000017844658417438636690_);}
	.st66{fill:url(#SVGID_00000062900681740980934700000018413399312727086218_);}
	.st67{fill:url(#SVGID_00000152246752012788003480000011255698176729311628_);}
	.st68{fill:url(#SVGID_00000129921907466424593570000007686798543647766446_);}
	.st69{fill:url(#SVGID_00000142872983167481825960000008264358442945156229_);}
	.st70{fill:url(#SVGID_00000103985071420900604880000009381836854784473268_);}
	.st71{fill:url(#SVGID_00000167388951600094214500000012685793308284350606_);}
	.st72{fill:url(#SVGID_00000170964240454993039720000009860522590823914368_);}
	.st73{fill:url(#SVGID_00000074406144685538287000000013114989120985877433_);}
	.st74{fill:url(#SVGID_00000075121922645137207860000013282403957400592269_);}
	.st75{fill:url(#SVGID_00000049182277089896391500000009372982779084256441_);}
	.st76{fill:url(#SVGID_00000092415314111350909660000001720894335653914762_);}
	.st77{fill:url(#SVGID_00000150066375102144023380000003232240022013320852_);}
	.st78{fill:url(#SVGID_00000070120329594533160730000014640786824463047561_);}
	.st79{fill:url(#SVGID_00000014602480889719269620000009525323824075296659_);}
	.st80{fill:url(#SVGID_00000025407727281847979770000008098289191596832440_);}
	.st81{fill:url(#SVGID_00000059306760805617132570000007407184762001084304_);}
	.st82{fill:url(#SVGID_00000093897526103087259350000011818214595295212471_);}
	.st83{fill:url(#SVGID_00000045596362587182418570000009433093991644382647_);}
	.st84{fill:url(#SVGID_00000045607447568730821520000015302949563785996705_);}
	.st85{fill:url(#SVGID_00000075134229692301545850000005822372062645129600_);}
	.st86{fill:url(#SVGID_00000020372801765736155630000010384366520106911381_);}
	.st87{fill:url(#SVGID_00000003793815399973315060000005500526258693215911_);}
	.st88{fill:url(#SVGID_00000039127803152513555130000010560396664740241303_);}
	.st89{fill:url(#SVGID_00000177470943960409403120000012849019774215222969_);}
	.st90{fill:url(#SVGID_00000072282077092317701690000008738117846833431212_);}
	.st91{fill:url(#SVGID_00000014629445285151313980000004772860992988660884_);}
	.st92{fill:url(#SVGID_00000016776935235241387220000014629247236040182184_);}
	.st93{fill:url(#SVGID_00000018947287214269096250000014858996580090790059_);}
	.st94{fill:url(#SVGID_00000054226870246036095470000014708790367367722169_);}
	.st95{fill:url(#SVGID_00000061465567334391222620000000093569122775192496_);}
	.st96{fill:url(#SVGID_00000164480148974980570710000002600578513254800000_);}
	.st97{fill:url(#SVGID_00000065076140243252168660000003730248019340805009_);}
	.st98{fill:url(#SVGID_00000008141048830886611750000009224496874029232799_);}
	.st99{fill:url(#SVGID_00000176023259920882295580000002054087807520544669_);}
	.st100{fill:url(#SVGID_00000135682912041660731870000001535611191250521475_);}
	.st101{fill:url(#SVGID_00000181793664842940534190000013419154980971359640_);}
	.st102{fill:url(#SVGID_00000097468800618145997050000013035519494443510689_);}
	.st103{fill:url(#SVGID_00000165949977663456414700000012380862822013131137_);}
	.st104{fill:url(#SVGID_00000093141715132697293160000013950186038573626278_);}
	.st105{fill:url(#SVGID_00000139272342518668546900000016377663157453408405_);}
	.st106{fill:url(#SVGID_00000042706578897286003990000015699675005282945727_);}
	.st107{fill:url(#SVGID_00000062874888443657436620000002518404820452890003_);}
	.st108{fill:url(#SVGID_00000019653720619180705130000008368772251306854544_);}
	.st109{fill:url(#SVGID_00000162344668060298404200000014115587397324530086_);}
	.st110{fill:url(#SVGID_00000043418142961520749510000004662166502325861774_);}
	.st111{fill:url(#SVGID_00000138558570730330448960000009282208903956719273_);}
	.st112{stroke:#000D20;stroke-miterlimit:10;}
	.st113{fill:#31B3BA;}
	.st114{fill:#00A481;}
	.st115{fill:#FCFCFC;}
	.st116{fill:url(#SVGID_00000121256968341699876400000008926192496158685068_);}
	.st117{fill:url(#SVGID_00000146497993570513886550000009221048999881424053_);}
	.st118{fill:url(#SVGID_00000177475309522942079100000000176605248629009287_);}
	.st119{fill:url(#SVGID_00000136404526039193935280000003891391472057413297_);}
	.st120{fill:url(#SVGID_00000002365875961593908000000001678972361756160657_);}
	.st121{fill:url(#SVGID_00000101096167380067598200000009130198848547534779_);}
	.st122{fill:url(#SVGID_00000141427679405692805970000015500608601334871212_);}
	.st123{fill:url(#SVGID_00000181081600325181815560000015488508331568840125_);}
	.st124{fill:url(#SVGID_00000131367791144988486220000015694713114612928645_);}
	.st125{fill:url(#SVGID_00000126292380259816748340000008224578590493223841_);}
	.st126{fill:url(#SVGID_00000043446938458025930810000000435666450375409799_);}
	.st127{fill:url(#SVGID_00000034793315377351007120000016257333378563484568_);}
	.st128{fill:url(#SVGID_00000122688739930677438240000010707166016632124309_);}
	.st129{fill:url(#SVGID_00000176029114866695138270000000910375756395909299_);}
	.st130{fill:url(#SVGID_00000088854363382603999530000011689583358745086642_);}
	.st131{fill:url(#SVGID_00000137131266832425884420000000128148583991102091_);}
	.st132{fill:url(#SVGID_00000140728974097618262840000011991505072088862094_);}
	.st133{fill:url(#SVGID_00000117673115968748076350000006285773143054505094_);}
	.st134{fill:url(#SVGID_00000179643316579429644740000000373121246436891544_);}
	.st135{fill:url(#SVGID_00000089565425552854795150000010942210331030679971_);}
	.st136{fill:url(#SVGID_00000090287306493898070580000009797679603779067063_);}
	.st137{fill:url(#SVGID_00000018195510163673542720000007174421369320523397_);}
	.st138{fill:url(#SVGID_00000037690578828900083490000015161854094689499801_);}
	.st139{fill:url(#SVGID_00000127007067054173786110000004645694320774426015_);}
	.st140{fill:url(#SVGID_00000140010044043975690690000006702379998712270209_);}
	.st141{fill:url(#SVGID_00000122698589679646259770000000129123560213829763_);}
	.st142{fill:url(#SVGID_00000000192076773809470720000014976148855099277959_);}
	.st143{fill:none;stroke:#000000;stroke-width:4;stroke-miterlimit:10;}
	.st144{fill:url(#SVGID_00000098929128677272348570000010296365413848224445_);}
	.st145{fill:url(#SVGID_00000127739525203606401520000016097198956664158604_);}
	.st146{fill:url(#SVGID_00000065069552315412047510000017512986236671240383_);}
	.st147{fill:url(#SVGID_00000160171132254242390350000011213023519427642496_);}
	.st148{fill:url(#SVGID_00000151521755393371322400000011712099323000942492_);}
	.st149{fill:url(#SVGID_00000099662681869522869680000008168937612179563910_);}
	.st150{fill:url(#SVGID_00000183229106601966183110000010326183351380834213_);}
	.st151{fill:url(#SVGID_00000018202576990379726530000014182457417161567927_);}
	.st152{fill:url(#SVGID_00000062193451716565540650000002606878880719851148_);}
	.st153{fill:url(#SVGID_00000070079602003765029930000005787008806319230104_);}
	.st154{fill:url(#SVGID_00000107568411699548375600000007917126374866689178_);}
	.st155{fill:url(#SVGID_00000018953887583341331320000010802617267000695680_);}
	.st156{fill:url(#SVGID_00000083800144264292916020000007480610025480706188_);}
	.st157{fill:url(#SVGID_00000016052129339200124910000007311704203303327643_);}
	.st158{fill:url(#SVGID_00000028321822623416034410000004753929414528627881_);}
	.st159{fill:url(#SVGID_00000062896207366028409880000007227781832913055138_);}
	.st160{fill:url(#SVGID_00000116939138219929042450000012250811406084795066_);}
	.st161{fill:url(#SVGID_00000063634239799753288540000018075100635739278768_);}
	.st162{fill:url(#SVGID_00000059278451983055234460000000894034141051183019_);}
	.st163{fill:url(#SVGID_00000005257199006339015460000006815160443925475493_);}
	.st164{fill:url(#SVGID_00000078042525322555935590000002038030123134130103_);}
	.st165{fill:url(#SVGID_00000080904388900295422280000011598764288709427597_);}
	.st166{fill:url(#SVGID_00000113350038608211410980000003190141971399574934_);}
	.st167{fill:url(#SVGID_00000098902113027075566120000004549450904118427044_);}
	.st168{fill:url(#SVGID_00000157281402182556623700000006693076083118414749_);}
	.st169{fill:url(#SVGID_00000162354619137653420370000000872595926170785664_);}
	.st170{fill:url(#SVGID_00000012441893047881833820000007896069394419312026_);}
	.st171{fill:url(#SVGID_00000044869226285543345000000011699841112117060520_);}
	.st172{fill:url(#SVGID_00000164494161632325188010000006259904297406089103_);}
	.st173{fill:url(#SVGID_00000158708255729524513610000001692644758574464896_);}
	.st174{fill:url(#SVGID_00000056387016283527541820000013088798328288415661_);}
	.st175{fill:url(#SVGID_00000024710665444332984760000012579424128050600596_);}
	.st176{fill:url(#SVGID_00000165920990366304759710000018171351332973150607_);}
	.st177{fill:url(#SVGID_00000011745869241410041500000016678327981280583080_);}
	.st178{fill:url(#SVGID_00000086669308804995214740000014514356918585793973_);}
	.st179{fill:url(#SVGID_00000062891163980469263760000001416858314970146493_);}
	.st180{fill:url(#SVGID_00000166647633205488737690000015061179694528051881_);}
	.st181{fill:url(#SVGID_00000021814522870018254250000007155423893241041557_);}
	.st182{fill:url(#SVGID_00000000920403045042891760000013173026847381401244_);}
	.st183{fill:url(#SVGID_00000075120991126293547700000007448710480063359917_);}
	.st184{fill:url(#SVGID_00000121991990459234654880000010500670607530925191_);}
	.st185{fill:url(#SVGID_00000120543100219144400080000008859561238288940474_);}
	.st186{fill:url(#SVGID_00000074400528994129405810000007867583614672162180_);}
	.st187{fill:url(#SVGID_00000164498647511488805240000000287124696874616243_);}
	.st188{fill:url(#SVGID_00000060741716790339259780000011517178402789479080_);}
	.st189{fill:url(#SVGID_00000053507427325059302430000013650262205874574005_);}
	.st190{fill:url(#SVGID_00000093893882666259896500000002657941123026229142_);}
	.st191{fill:url(#SVGID_00000161632564523348604230000010110117183519754169_);}
	.st192{fill:url(#SVGID_00000156546448095666950270000012400685332563383215_);}
	.st193{fill:url(#SVGID_00000144312738080060977570000002006071675928048010_);}
	.st194{fill:url(#SVGID_00000059308543859121657330000011447331238621538959_);}
	.st195{fill:url(#SVGID_00000106105868813586951070000018153661655487330977_);}
	.st196{fill:url(#SVGID_00000178884455248089798410000016023230872612782470_);}
	.st197{fill:url(#SVGID_00000030479665617400675020000016805381014292443820_);}
	.st198{fill:#FAFCFB;stroke:#000000;stroke-width:4;stroke-miterlimit:10;}
	.st199{fill:url(#SVGID_00000081636377896178189570000008504011334961811387_);}
	.st200{fill:url(#SVGID_00000097502214454646038570000001786024629864976043_);}
	.st201{fill:url(#SVGID_00000104694309560307355400000017395326006712569485_);}
	.st202{fill:url(#SVGID_00000088853567995233815210000015811268058872491907_);}
	.st203{fill:url(#SVGID_00000010289359081752201580000013556002128444273341_);}
	.st204{fill:url(#SVGID_00000072259741774299018330000015165319968383336580_);}
	.st205{fill:url(#SVGID_00000182526485460179476970000009385236719414385288_);}
	.st206{fill:url(#SVGID_00000113321345210114190850000009639230433647105711_);}
	.st207{fill:url(#SVGID_00000181078075969273290260000013836721271418802599_);}
	.st208{fill:url(#SVGID_00000056408062167777093120000018340026885236222137_);}
	.st209{fill:url(#SVGID_00000038410749921774967840000004133734879461852546_);}
	.st210{fill:url(#SVGID_00000103227295836506141910000003468225071982284958_);}
	.st211{fill:url(#SVGID_00000182493222966225261910000018233817783514083242_);}
	.st212{fill:url(#SVGID_00000080191456266202221630000004322103914271796406_);}
	.st213{fill:url(#SVGID_00000091702816692824506600000003638663203401199773_);}
	.st214{fill:url(#SVGID_00000168113384535059137560000005078890904715611548_);}
	.st215{fill:url(#SVGID_00000160879525150989417280000010999458830155486116_);}
	.st216{fill:url(#SVGID_00000080902310436179347450000008105245364817016490_);}
	.st217{fill:url(#SVGID_00000181086270142000114940000003134995686766674607_);}
	.st218{fill:url(#SVGID_00000093897551481062603950000002525582231107065248_);}
	.st219{fill:url(#SVGID_00000047782997489843698770000013641854952940963721_);}
	.st220{fill:url(#SVGID_00000023990931479797644850000004703446624656820641_);}
	.st221{fill:url(#SVGID_00000002344666124591521080000016000190918731300783_);}
	.st222{fill:url(#SVGID_00000142862905519384403450000010286622926644246442_);}
	.st223{fill:url(#SVGID_00000119104095410486688650000014618605546395946931_);}
	.st224{fill:url(#SVGID_00000124862866482889442350000006418878461405444007_);}
	.st225{fill:url(#SVGID_00000160887971958948827650000014996744351334720640_);}
	.st226{fill:#030104;}
	.st227{fill:#EEF2F5;}
	.st228{font-family:'Chalkboard';}
	.st229{font-size:145.7515px;}
	.st230{opacity:0.4;}
	.st231{fill:#3C3C3C;}
</style>
<g id="BACKGROUND">
</g>
<g id="OBJECTS">
	<g>
		
			<image style="overflow:visible;opacity:0.2;" width="367" height="366" xlink:href="E1068906DCB8B8C6.png"  transform="matrix(0.48 0 0 0.48 1.68 4.16)">
		</image>
		<g>
			<g>
				<g>
					<g>
						<ellipse class="st114" cx="87.7" cy="90" rx="81.7" ry="81.7"/>
						<path class="st114" d="M168,88.3c1,44.3-34.2,81.1-78.5,82c-44.3,1-81.1-34.2-82-78.5c-1-44.3,34.2-81.1,78.5-82
							C130.3,8.8,167,43.9,168,88.3z"/>
						<path class="st114" d="M166.6,86.5c1.9,43.6-31.8,80.4-75.4,82.4c-43.6,1.9-80.5-31.8-82.4-75.4C6.9,49.9,40.6,13,84.2,11.1
							C127.8,9.2,164.7,42.9,166.6,86.5z"/>
						<path class="st114" d="M165.2,84.8c2.9,42.8-29.4,79.8-72.2,82.7c-42.8,2.9-79.8-29.4-82.7-72.2C7.3,52.4,39.7,15.4,82.5,12.5
							C125.3,9.6,162.3,42,165.2,84.8z"/>
						<path class="st114" d="M163.8,83c3.9,42-27.1,79.2-69.1,83.1C52.7,170,15.5,139,11.6,97C7.7,55,38.7,17.8,80.7,13.9
							C122.7,10,159.9,41,163.8,83z"/>
						<path class="st114" d="M162.4,81.3c4.8,41.3-24.7,78.6-66,83.5c-41.3,4.8-78.6-24.7-83.5-66C8.2,57.5,37.7,20.1,79,15.3
							C120.2,10.5,157.6,40,162.4,81.3z"/>
						<path class="st114" d="M161,79.5c5.8,40.5-22.3,78-62.8,83.8c-40.5,5.8-78-22.3-83.8-62.8C8.6,60,36.7,22.5,77.2,16.7
							C117.7,10.9,155.2,39,161,79.5z"/>
						<path class="st114" d="M159.6,77.8c6.8,39.7-20,77.4-59.7,84.2c-39.7,6.8-77.4-20-84.2-59.7C9,62.5,35.7,24.8,75.5,18.1
							C115.2,11.3,152.9,38,159.6,77.8z"/>
						<path class="st114" d="M158.2,76c7.7,39-17.6,76.8-56.5,84.5c-39,7.7-76.8-17.6-84.5-56.5C9.4,65,34.8,27.2,73.7,19.5
							C112.7,11.7,150.5,37,158.2,76z"/>
						<path class="st114" d="M156.8,74.3c8.7,38.2-15.2,76.2-53.4,84.9c-38.2,8.7-76.2-15.2-84.9-53.4C9.9,67.6,33.8,29.6,72,20.9
							C110.1,12.2,148.2,36.1,156.8,74.3z"/>
						<path class="st114" d="M155.5,72.5c9.7,37.4-12.8,75.6-50.3,85.2c-37.4,9.7-75.6-12.8-85.2-50.3
							c-9.7-37.4,12.8-75.6,50.3-85.2C107.6,12.6,145.8,35.1,155.5,72.5z"/>
						<path class="st114" d="M154.1,70.8c10.6,36.6-10.5,75-47.1,85.6c-36.6,10.6-75-10.5-85.6-47.1c-10.6-36.6,10.5-75,47.1-85.6
							C105.1,13,143.4,34.1,154.1,70.8z"/>
						<path class="st114" d="M152.7,69c11.6,35.9-8.1,74.4-44,86c-35.9,11.6-74.4-8.1-86-44c-11.6-35.9,8.1-74.4,44-86
							C102.6,13.4,141.1,33.1,152.7,69z"/>
						<path class="st114" d="M151.3,67.3c12.6,35.1-5.7,73.8-40.8,86.3c-35.1,12.6-73.8-5.7-86.3-40.8C11.6,77.6,29.9,39,65,26.4
							C100.1,13.9,138.7,32.1,151.3,67.3z"/>
						<path class="st114" d="M149.9,65.5c13.5,34.3-3.3,73.2-37.7,86.7c-34.3,13.5-73.1-3.3-86.7-37.7C12,80.1,28.9,41.3,63.2,27.8
							C97.6,14.3,136.4,31.2,149.9,65.5z"/>
						<path class="st114" d="M148.5,63.8c14.5,33.6-1,72.5-34.6,87c-33.6,14.5-72.5-1-87-34.6c-14.5-33.6,1-72.5,34.6-87
							C95,14.7,134,30.2,148.5,63.8z"/>
						<path class="st114" d="M147.1,62c15.5,32.8,1.4,71.9-31.4,87.4c-32.8,15.5-71.9,1.4-87.4-31.4c-15.5-32.8-1.4-71.9,31.4-87.4
							C92.5,15.1,131.6,29.2,147.1,62z"/>
						<path class="st114" d="M145.7,60.3c16.4,32,3.8,71.3-28.3,87.8c-32,16.4-71.3,3.8-87.7-28.3C13.3,87.7,25.9,48.4,58,32
							C90,15.6,129.3,28.2,145.7,60.3z"/>
						<path class="st114" d="M144.3,58.5c17.4,31.3,6.1,70.7-25.1,88.1c-31.3,17.4-70.7,6.1-88.1-25.1
							c-17.4-31.3-6.1-70.7,25.1-88.1C87.5,16,126.9,27.2,144.3,58.5z"/>
						<path class="st114" d="M142.9,56.8c18.4,30.5,8.5,70.1-22,88.5c-30.5,18.4-70.1,8.5-88.5-22c-18.4-30.5-8.5-70.1,22-88.5
							C85,16.4,124.6,26.3,142.9,56.8z"/>
						<path class="st114" d="M141.5,55c19.3,29.7,10.9,69.5-18.8,88.8C93,163.2,53.2,154.7,33.9,125C14.5,95.3,23,55.5,52.7,36.2
							C82.4,16.8,122.2,25.3,141.5,55z"/>
						<path class="st114" d="M140.1,53.3c20.3,29,13.3,68.9-15.7,89.2c-29,20.3-68.9,13.3-89.2-15.7C15,97.8,22,57.8,51,37.6
							C79.9,17.3,119.9,24.3,140.1,53.3z"/>
						<path class="st114" d="M138.8,51.5c21.3,28.2,15.6,68.3-12.6,89.5c-28.2,21.3-68.3,15.6-89.5-12.6
							C15.4,100.3,21,60.2,49.2,38.9C77.4,17.7,117.5,23.3,138.8,51.5z"/>
						<path class="st114" d="M137.4,49.8c22.2,27.4,18,67.7-9.4,89.9c-27.4,22.2-67.7,18-89.9-9.4c-22.2-27.4-18-67.7,9.4-89.9
							C74.9,18.1,115.1,22.3,137.4,49.8z"/>
						<path class="st114" d="M136,48c23.2,26.7,20.4,67.1-6.3,90.3c-26.7,23.2-67.1,20.4-90.3-6.3c-23.2-26.7-20.4-67.1,6.3-90.3
							C72.4,18.5,112.8,21.4,136,48z"/>
						<path class="st114" d="M134.6,46.3c24.2,25.9,22.8,66.5-3.1,90.6c-25.9,24.2-66.5,22.8-90.6-3.1C16.7,107.8,18.1,67.3,44,43.1
							C69.9,19,110.4,20.4,134.6,46.3z"/>
						<path class="st114" d="M133.2,44.5c25.1,25.1,25.1,65.9,0,91c-25.1,25.1-65.8,25.1-91,0c-25.1-25.1-25.1-65.8,0-91
							C67.3,19.4,108.1,19.4,133.2,44.5z"/>
					</g>
				</g>
				<g>
					<path class="st115" d="M88,35c-13.2,0-35.7,6-35.7,38.6C52.3,111,88,146,88,146s35.7-35,35.7-72.4C123.7,43.5,101.2,35,88,35z"
						/>
					
						<ellipse transform="matrix(1.279174e-02 -0.9999 0.9999 1.279174e-02 16.2031 157.7658)" class="st114" cx="88" cy="70.7" rx="16.1" ry="16.1"/>
				</g>
			</g>
		</g>
	</g>
	<text transform="matrix(1.0654 0 0 1 47.144 -71.9834)" class="st227 st228 st229">+</text>
</g>
<g id="DESIGNED_BY_FREEPIK">
</g>
</svg>
