<?xml version="1.0" encoding="utf-8"?>
<!-- Generator: Adobe Illustrator 26.5.0, SVG Export Plug-In . SVG Version: 6.00 Build 0)  -->
<svg version="1.1" xmlns="http://www.w3.org/2000/svg" xmlns:xlink="http://www.w3.org/1999/xlink" x="0px" y="0px"
	 viewBox="0 0 179.5 179.5" style="enable-background:new 0 0 179.5 179.5;" xml:space="preserve">
<style type="text/css">
	.st0{fill-rule:evenodd;clip-rule:evenodd;fill:#EEF2F5;}
	.st1{fill:url(#SVGID_1_);}
	.st2{fill:url(#SVGID_00000127725294798665410350000003596795457398691743_);}
	.st3{fill:url(#SVGID_00000073685216419802854650000009940173026846447259_);}
	.st4{fill:url(#SVGID_00000123403046778049234250000011533047123343678105_);}
	.st5{fill:url(#SVGID_00000180360986293689276850000017575606882938379939_);}
	.st6{fill:url(#SVGID_00000011720249474705046790000002122570939807274661_);}
	.st7{fill:url(#SVGID_00000103252085821806999820000015907330880861190053_);}
	.st8{fill:url(#SVGID_00000014615910235841417500000010536931357129269133_);}
	.st9{fill:url(#SVGID_00000102530191569751015960000015673263232291105454_);}
	.st10{fill:url(#SVGID_00000027564457236929024190000006295628328430447270_);}
	.st11{fill:url(#SVGID_00000159456075620657976220000017408453480688658852_);}
	.st12{fill:url(#SVGID_00000154387191502762327150000005250646065995499425_);}
	.st13{fill:url(#SVGID_00000183959822158574619220000017263886498191279294_);}
	.st14{fill:url(#SVGID_00000019659469133594618490000016412489465274762922_);}
	.st15{fill:url(#SVGID_00000013905624049192059640000011248298057883907204_);}
	.st16{fill:url(#SVGID_00000025421007017091682610000017293813902237754802_);}
	.st17{fill:url(#SVGID_00000174588355460748014450000016897487941433970051_);}
	.st18{fill:url(#SVGID_00000033339233427685400860000011542085298075138214_);}
	.st19{fill:url(#SVGID_00000132076966508420065650000012401937508682373310_);}
	.st20{fill:url(#SVGID_00000060726140644609831610000009646752777279433884_);}
	.st21{fill:url(#SVGID_00000182522840026091708910000001137295199453276807_);}
	.st22{fill:url(#SVGID_00000097462073975960161710000007105369712039812528_);}
	.st23{fill:url(#SVGID_00000113335668536617425040000007025292855690649765_);}
	.st24{fill:url(#SVGID_00000180351431861408713520000005586670932578114976_);}
	.st25{fill:url(#SVGID_00000070109978299183394290000007160154551456871337_);}
	.st26{fill:url(#SVGID_00000106129996885022312290000003672584429359154617_);}
	.st27{fill:url(#SVGID_00000060018509939211767790000015533854224793450918_);}
	.st28{fill:none;stroke:#000D20;stroke-width:4;stroke-miterlimit:10;}
	.st29{fill:#000D20;}
	.st30{fill:#FAFCFB;}
	.st31{fill:url(#SVGID_00000061470658209569451530000005605955948350690203_);}
	.st32{fill:url(#SVGID_00000177476766772162088200000011534434521325223610_);}
	.st33{fill:url(#SVGID_00000103973164090525968430000005598314528275568544_);}
	.st34{fill:url(#SVGID_00000160885583453789823200000010778151558112417205_);}
	.st35{fill:url(#SVGID_00000129174793159217119950000003487804768907303336_);}
	.st36{fill:url(#SVGID_00000108283827778890556250000017190833950159499955_);}
	.st37{fill:url(#SVGID_00000052793641425673463960000016189303602532641956_);}
	.st38{fill:url(#SVGID_00000016757065441798331190000015913743724157347225_);}
	.st39{fill:url(#SVGID_00000011008326075409129650000016050575024767053212_);}
	.st40{fill:url(#SVGID_00000043454026270986152100000003673617567624587949_);}
	.st41{fill:url(#SVGID_00000074442795447495713680000000353630339724294286_);}
	.st42{fill:url(#SVGID_00000008852936909326075920000004872535430474439103_);}
	.st43{fill:url(#SVGID_00000122705098561959287230000013745085532796984752_);}
	.st44{fill:url(#SVGID_00000183216860967263715230000004104911630317763261_);}
	.st45{fill:url(#SVGID_00000045584122554394645130000017777157150554197403_);}
	.st46{fill:url(#SVGID_00000090980217483332132410000004087915239710997650_);}
	.st47{fill:url(#SVGID_00000103262719312701740880000002334413706465295803_);}
	.st48{fill:url(#SVGID_00000093873342778559561590000011520635615156656054_);}
	.st49{fill:url(#SVGID_00000101783833073371029710000005948347063447320220_);}
	.st50{fill:url(#SVGID_00000145777265360631002760000009197390387360326787_);}
	.st51{fill:url(#SVGID_00000016757115708622285900000010523364678940494982_);}
	.st52{fill:url(#SVGID_00000166657565869106390550000016728877299966757007_);}
	.st53{fill:url(#SVGID_00000114052678406472526880000016907793483892622722_);}
	.st54{fill:url(#SVGID_00000120542406772523786410000004670072920876144295_);}
	.st55{fill:url(#SVGID_00000157997605015322493660000001876816877911058366_);}
	.st56{fill:url(#SVGID_00000073713237043678214540000004185999698623049354_);}
	.st57{fill:url(#SVGID_00000078723392683889349820000012798145332157477290_);}
	.st58{fill:url(#SVGID_00000151509239842076228910000002110728159073013418_);}
	.st59{fill:url(#SVGID_00000009557801128880989050000013481336568082082745_);}
	.st60{fill:url(#SVGID_00000012473390023309776260000002892310812966795439_);}
	.st61{fill:url(#SVGID_00000037676802369294752850000012387878011178537120_);}
	.st62{fill:url(#SVGID_00000042005695741482173970000005361485686384866478_);}
	.st63{fill:url(#SVGID_00000083807903888044443750000009966270286958541726_);}
	.st64{fill:url(#SVGID_00000093164883737455166210000007780372014087956126_);}
	.st65{fill:url(#SVGID_00000070836397252291617380000008541213125861648803_);}
	.st66{fill:url(#SVGID_00000066504059791576470820000014230013714400705157_);}
	.st67{fill:url(#SVGID_00000013871191679275212640000003557565586198967700_);}
	.st68{fill:url(#SVGID_00000132046983591297862280000012584412862112601017_);}
	.st69{fill:url(#SVGID_00000131336357031918141770000005853009139409694617_);}
	.st70{fill:url(#SVGID_00000166670681020599185310000013018742593674905267_);}
	.st71{fill:url(#SVGID_00000155866183989830076870000003542693246812999834_);}
	.st72{fill:url(#SVGID_00000129925932371796704400000004952714609873159315_);}
	.st73{fill:url(#SVGID_00000001644835290246803610000003635982823848445877_);}
	.st74{fill:url(#SVGID_00000070090662970118071650000012198252230796997034_);}
	.st75{fill:url(#SVGID_00000098921257663053333700000002222511015357513616_);}
	.st76{fill:url(#SVGID_00000171694100203333989950000012846111907083808184_);}
	.st77{fill:url(#SVGID_00000121985691227692012450000009225368186336607419_);}
	.st78{fill:url(#SVGID_00000176006982140712187360000017810796455128682390_);}
	.st79{fill:url(#SVGID_00000008855993670087178040000012728635577710637226_);}
	.st80{fill:url(#SVGID_00000119826937830103742500000014406526013800919702_);}
	.st81{fill:url(#SVGID_00000162311808050019601820000002061318601517453758_);}
	.st82{fill:url(#SVGID_00000032616040459567000480000018395987030076895896_);}
	.st83{fill:url(#SVGID_00000041994287431076294760000005444792508122625450_);}
	.st84{fill:url(#SVGID_00000082327290178589237700000002534778109461596565_);}
	.st85{fill:url(#SVGID_00000013159617592830775210000006121382118251758251_);}
	.st86{fill:url(#SVGID_00000019657262181186667940000001398623960820185014_);}
	.st87{fill:url(#SVGID_00000107582837106209885410000006167604905432809149_);}
	.st88{fill:url(#SVGID_00000062162122319547817270000008965576033230972829_);}
	.st89{fill:url(#SVGID_00000003064922117519374860000016910614957052427453_);}
	.st90{fill:url(#SVGID_00000120548423428363460180000006634732220741969824_);}
	.st91{fill:url(#SVGID_00000092456202284704789150000005178248572127480984_);}
	.st92{fill:url(#SVGID_00000043443621110087627770000009643316764258011305_);}
	.st93{fill:url(#SVGID_00000105421105009511111630000014137271008282047879_);}
	.st94{fill:url(#SVGID_00000057132424833091203310000000432092702095940489_);}
	.st95{fill:url(#SVGID_00000003098229529699848220000007757208987779058620_);}
	.st96{fill:url(#SVGID_00000151506641809334508370000000668295162152707244_);}
	.st97{fill:url(#SVGID_00000029033927039772595820000000641345770702222984_);}
	.st98{fill:url(#SVGID_00000174568923107403893440000015184631040110476952_);}
	.st99{fill:url(#SVGID_00000158708562265057343770000004764056964573567625_);}
	.st100{fill:url(#SVGID_00000102505844538731036220000014556923271460176049_);}
	.st101{fill:url(#SVGID_00000015328497494040503030000015377864730615109271_);}
	.st102{fill:url(#SVGID_00000134237530378875439240000012548014384170509953_);}
	.st103{fill:url(#SVGID_00000007411176046672020770000004591074147476415165_);}
	.st104{fill:url(#SVGID_00000133498094382070651580000001405074700650953878_);}
	.st105{fill:url(#SVGID_00000019640804020869185400000004096406053072352922_);}
	.st106{fill:url(#SVGID_00000083053549449577510100000012306208907893182607_);}
	.st107{fill:url(#SVGID_00000163754216515887671550000000451332013872752777_);}
	.st108{fill:url(#SVGID_00000116215691553816503300000018346474791006158261_);}
	.st109{fill:url(#SVGID_00000070092534284116400290000003096419110522584245_);}
	.st110{fill:url(#SVGID_00000009591399767223586070000011096184978023314573_);}
	.st111{fill:url(#SVGID_00000160903202509170346730000012127317286262156215_);}
	.st112{stroke:#000D20;stroke-miterlimit:10;}
	.st113{fill:#31B3BA;}
	.st114{fill:#00A481;}
	.st115{fill:#FCFCFC;}
	.st116{fill:url(#SVGID_00000178200579655314614180000014574635396779901314_);}
	.st117{fill:url(#SVGID_00000153676922010755759340000001611116060968931480_);}
	.st118{fill:url(#SVGID_00000128468896802600935460000014749529464968529845_);}
	.st119{fill:url(#SVGID_00000126284718136426631670000004971611296870533307_);}
	.st120{fill:url(#SVGID_00000036962549214969521530000009997763759950338970_);}
	.st121{fill:url(#SVGID_00000044858477188715974920000016618358644084610745_);}
	.st122{fill:url(#SVGID_00000109028857321850591880000006964191972700816051_);}
	.st123{fill:url(#SVGID_00000155853698431130372700000006310178167147743162_);}
	.st124{fill:url(#SVGID_00000041262902414541183470000010809308832483317949_);}
	.st125{fill:url(#SVGID_00000029011031815729392570000011641049564122224822_);}
	.st126{fill:url(#SVGID_00000095321173396236558190000005728842926098213305_);}
	.st127{fill:url(#SVGID_00000116929782604581099700000007625940635952586151_);}
	.st128{fill:url(#SVGID_00000039846150026283864780000013978578313729831572_);}
	.st129{fill:url(#SVGID_00000150780961102833778410000010260307650316092824_);}
	.st130{fill:url(#SVGID_00000176748770690981210990000017544592068732735625_);}
	.st131{fill:url(#SVGID_00000044890311905053586240000002145227518079235753_);}
	.st132{fill:url(#SVGID_00000133493653585715537500000012488771665772209841_);}
	.st133{fill:url(#SVGID_00000085947028467977342700000017057094500522565003_);}
	.st134{fill:url(#SVGID_00000035512637258089080830000017169872263747849909_);}
	.st135{fill:url(#SVGID_00000050641676873182559870000000351044991890793659_);}
	.st136{fill:url(#SVGID_00000039099087011553943840000009058416978603438501_);}
	.st137{fill:url(#SVGID_00000134212649516142994250000001972244085968724145_);}
	.st138{fill:url(#SVGID_00000066515886194111520220000010866354717252305059_);}
	.st139{fill:url(#SVGID_00000110431310944750915100000012680625160554049980_);}
	.st140{fill:url(#SVGID_00000116211218295037552620000015176598929571505029_);}
	.st141{fill:url(#SVGID_00000116207171487055321280000004866618579577398692_);}
	.st142{fill:url(#SVGID_00000106122374552187489450000008768681117104154288_);}
	.st143{fill:none;stroke:#000000;stroke-width:4;stroke-miterlimit:10;}
	.st144{fill:url(#SVGID_00000168814326333913284240000016206194411782321816_);}
	.st145{fill:url(#SVGID_00000073681622314040277140000007447844654998292116_);}
	.st146{fill:url(#SVGID_00000117656442845827101280000005650962280786079621_);}
	.st147{fill:url(#SVGID_00000131330088515698453310000017711770019203327167_);}
	.st148{fill:url(#SVGID_00000018228201569508584410000005773626692319368866_);}
	.st149{fill:url(#SVGID_00000111885980518446683440000016164195644167424651_);}
	.st150{fill:url(#SVGID_00000086654187280015404300000013740745552353483420_);}
	.st151{fill:url(#SVGID_00000173850699748334988450000006498444140412591000_);}
	.st152{fill:url(#SVGID_00000144299763865094456270000002038503452465343366_);}
	.st153{fill:url(#SVGID_00000104669504616887129640000012310627546848247460_);}
	.st154{fill:url(#SVGID_00000179610524246041053390000016771076312621852597_);}
	.st155{fill:url(#SVGID_00000042732484083807154340000012667614785608293505_);}
	.st156{fill:url(#SVGID_00000096054611879358460440000008325875663516341664_);}
	.st157{fill:url(#SVGID_00000138546625448129510660000002096464968508113827_);}
	.st158{fill:url(#SVGID_00000072277591300542888730000008207134290375115673_);}
	.st159{fill:url(#SVGID_00000049932032599116052870000002154392901151667633_);}
	.st160{fill:url(#SVGID_00000015313228496709244960000005385186253322637718_);}
	.st161{fill:url(#SVGID_00000100358356203048068010000014928309458860517287_);}
	.st162{fill:url(#SVGID_00000127739367967754399810000004886106707738408838_);}
	.st163{fill:url(#SVGID_00000173162811712180422520000017724871543981734829_);}
	.st164{fill:url(#SVGID_00000044152617774445589080000016693985657890255284_);}
	.st165{fill:url(#SVGID_00000154419527600053351870000016497078795526848959_);}
	.st166{fill:url(#SVGID_00000171680334530089102850000010338178439816070784_);}
	.st167{fill:url(#SVGID_00000040539657682749402200000008287106761142433179_);}
	.st168{fill:url(#SVGID_00000120541953757016328640000000992904269082654362_);}
	.st169{fill:url(#SVGID_00000067227058312027139940000016353230009887640758_);}
	.st170{fill:url(#SVGID_00000183209258399983999950000018273155360616945563_);}
	.st171{fill:url(#SVGID_00000080185771761557540720000018268475273134252200_);}
	.st172{fill:url(#SVGID_00000142165217059365927320000000298509080300455304_);}
	.st173{fill:url(#SVGID_00000131342512006998954660000013000656386596148654_);}
	.st174{fill:url(#SVGID_00000101068540321733173080000014736641102745236133_);}
	.st175{fill:url(#SVGID_00000052088335122868822400000001587542203551559309_);}
	.st176{fill:url(#SVGID_00000179642198589196409450000006527258887915901336_);}
	.st177{fill:url(#SVGID_00000068662136718728833200000004383047734789910437_);}
	.st178{fill:url(#SVGID_00000141431137658983566040000013412312535072732338_);}
	.st179{fill:url(#SVGID_00000092435796778823854850000016951795732858622132_);}
	.st180{fill:url(#SVGID_00000010306742756807383900000018117300961116786607_);}
	.st181{fill:url(#SVGID_00000103961481254429660890000014909533919622300567_);}
	.st182{fill:url(#SVGID_00000165924981774155821180000011998446277227175567_);}
	.st183{fill:url(#SVGID_00000085937812300494133700000004567343301467425198_);}
	.st184{fill:url(#SVGID_00000125568233131889913550000009571289924309698238_);}
	.st185{fill:url(#SVGID_00000007415109099596312940000005340498447776575381_);}
	.st186{fill:url(#SVGID_00000085226650721581989770000011553878994109364135_);}
	.st187{fill:url(#SVGID_00000099638873652128277540000000898054528838052265_);}
	.st188{fill:url(#SVGID_00000070108061751627722550000010068620372147980977_);}
	.st189{fill:url(#SVGID_00000023239221792867908200000001429529371628977821_);}
	.st190{fill:url(#SVGID_00000007390047644718326730000001719735776369316791_);}
	.st191{fill:url(#SVGID_00000088099391402296059380000005163555808758249914_);}
	.st192{fill:url(#SVGID_00000156558085668063512380000007399708839538500249_);}
	.st193{fill:url(#SVGID_00000075866133123103949710000008982059813603786155_);}
	.st194{fill:url(#SVGID_00000075126992546138697720000014731138359332073135_);}
	.st195{fill:url(#SVGID_00000183242587021467314000000005233372526855964824_);}
	.st196{fill:url(#SVGID_00000051344466540150784610000012047194422586572716_);}
	.st197{fill:url(#SVGID_00000029047862295693572200000001933515007674203557_);}
	.st198{fill:#FAFCFB;stroke:#000000;stroke-width:4;stroke-miterlimit:10;}
	.st199{fill:url(#SVGID_00000013172312736768718200000001525301785307446162_);}
	.st200{fill:url(#SVGID_00000073688581954870741830000010176854522337157796_);}
	.st201{fill:url(#SVGID_00000163069622364902101310000014292804776696940217_);}
	.st202{fill:url(#SVGID_00000145035575651193803380000003054649578680733095_);}
	.st203{fill:url(#SVGID_00000129903159003390410960000011136856091345435301_);}
	.st204{fill:url(#SVGID_00000132774262171847819080000003693690619153053101_);}
	.st205{fill:url(#SVGID_00000022544210889675411730000003405644652328193976_);}
	.st206{fill:url(#SVGID_00000100374251987804692560000015483855984735340706_);}
	.st207{fill:url(#SVGID_00000013177185763383652110000010219938631067254705_);}
	.st208{fill:url(#SVGID_00000049914672228812647090000003451229499782046396_);}
	.st209{fill:url(#SVGID_00000034771578888190184820000009644424000078695099_);}
	.st210{fill:url(#SVGID_00000008124134693976892320000004679782993405865394_);}
	.st211{fill:url(#SVGID_00000117655915367862737280000012479490416126847893_);}
	.st212{fill:url(#SVGID_00000042714808546265675380000016724714775199923348_);}
	.st213{fill:url(#SVGID_00000033351931064409757850000006170565225105723325_);}
	.st214{fill:url(#SVGID_00000014608328394848348150000016853608611120222896_);}
	.st215{fill:url(#SVGID_00000169522364375865390280000016175145378812320181_);}
	.st216{fill:url(#SVGID_00000113349069798766490020000009555774563592461988_);}
	.st217{fill:url(#SVGID_00000152230737528761179270000013167536104531248787_);}
	.st218{fill:url(#SVGID_00000021114143046095104520000009236699258245173939_);}
	.st219{fill:url(#SVGID_00000158734393067461189480000013828131812530615990_);}
	.st220{fill:url(#SVGID_00000010281323583957197640000012628389133209850033_);}
	.st221{fill:url(#SVGID_00000173851654211721085160000005472467625557164987_);}
	.st222{fill:url(#SVGID_00000126301151210497383120000008976950185885991851_);}
	.st223{fill:url(#SVGID_00000116218804053151232950000009606793977333760158_);}
	.st224{fill:url(#SVGID_00000113322241462636496560000015356272983601534101_);}
	.st225{fill:url(#SVGID_00000034796574260353988860000012417211897669904799_);}
	.st226{fill:#030104;}
	.st227{fill:#EEF2F5;}
	.st228{font-family:'Chalkboard';}
	.st229{font-size:145.7515px;}
	.st230{opacity:0.4;}
	.st231{fill:#3C3C3C;}
</style>
<g id="BACKGROUND">
</g>
<g id="OBJECTS">
	<g>
		
			<image style="overflow:visible;opacity:0.2;" width="367" height="367" xlink:href="95A99E716CDD1F82.png"  transform="matrix(0.48 0 0 0.48 1.68 3.88)">
		</image>
		<g>
			<g>
				<g>
					<g>
						<ellipse class="st113" cx="87.7" cy="90" rx="81.7" ry="81.7"/>
						<path class="st113" d="M168,88.3c1,44.3-34.2,81.1-78.5,82c-44.3,1-81.1-34.2-82-78.5c-1-44.3,34.2-81.1,78.5-82
							C130.3,8.8,167,43.9,168,88.3z"/>
						<path class="st113" d="M166.6,86.5c1.9,43.6-31.8,80.4-75.4,82.4c-43.6,1.9-80.5-31.8-82.4-75.4C6.9,49.9,40.6,13,84.2,11.1
							C127.8,9.2,164.7,42.9,166.6,86.5z"/>
						<path class="st113" d="M165.2,84.8c2.9,42.8-29.4,79.8-72.2,82.7c-42.8,2.9-79.8-29.4-82.7-72.2C7.3,52.4,39.7,15.4,82.5,12.5
							C125.3,9.6,162.3,42,165.2,84.8z"/>
						<path class="st113" d="M163.8,83c3.9,42-27.1,79.2-69.1,83.1C52.7,170,15.5,139,11.6,97C7.7,55,38.7,17.8,80.7,13.9
							C122.7,10,159.9,41,163.8,83z"/>
						<path class="st113" d="M162.4,81.3c4.8,41.3-24.7,78.6-66,83.5c-41.3,4.8-78.6-24.7-83.5-66C8.2,57.5,37.7,20.1,79,15.3
							C120.2,10.5,157.6,40,162.4,81.3z"/>
						<path class="st113" d="M161,79.5c5.8,40.5-22.3,78-62.8,83.8c-40.5,5.8-78-22.3-83.8-62.8C8.6,60,36.7,22.5,77.2,16.7
							C117.7,10.9,155.2,39,161,79.5z"/>
						<path class="st113" d="M159.6,77.8c6.8,39.7-20,77.4-59.7,84.2c-39.7,6.8-77.4-20-84.2-59.7C9,62.5,35.7,24.8,75.5,18.1
							C115.2,11.3,152.9,38,159.6,77.8z"/>
						<path class="st113" d="M158.2,76c7.7,39-17.6,76.8-56.5,84.5c-39,7.7-76.8-17.6-84.5-56.5C9.4,65,34.8,27.2,73.7,19.5
							C112.7,11.7,150.5,37,158.2,76z"/>
						<path class="st113" d="M156.8,74.3c8.7,38.2-15.2,76.2-53.4,84.9c-38.2,8.7-76.2-15.2-84.9-53.4C9.9,67.6,33.8,29.6,72,20.9
							C110.1,12.2,148.2,36.1,156.8,74.3z"/>
						<path class="st113" d="M155.5,72.5c9.7,37.4-12.8,75.6-50.3,85.2c-37.4,9.7-75.6-12.8-85.2-50.3
							c-9.7-37.4,12.8-75.6,50.3-85.2C107.6,12.6,145.8,35.1,155.5,72.5z"/>
						<path class="st113" d="M154.1,70.8c10.6,36.6-10.5,75-47.1,85.6c-36.6,10.6-75-10.5-85.6-47.1c-10.6-36.6,10.5-75,47.1-85.6
							C105.1,13,143.4,34.1,154.1,70.8z"/>
						<path class="st113" d="M152.7,69c11.6,35.9-8.1,74.4-44,86c-35.9,11.6-74.4-8.1-86-44c-11.6-35.9,8.1-74.4,44-86
							C102.6,13.4,141.1,33.1,152.7,69z"/>
						<path class="st113" d="M151.3,67.3c12.6,35.1-5.7,73.8-40.8,86.3c-35.1,12.6-73.8-5.7-86.3-40.8C11.6,77.6,29.9,39,65,26.4
							C100.1,13.9,138.7,32.1,151.3,67.3z"/>
						<path class="st113" d="M149.9,65.5c13.5,34.3-3.3,73.2-37.7,86.7c-34.3,13.5-73.1-3.3-86.7-37.7C12,80.1,28.9,41.3,63.2,27.8
							C97.6,14.3,136.4,31.2,149.9,65.5z"/>
						<path class="st113" d="M148.5,63.8c14.5,33.6-1,72.5-34.6,87c-33.6,14.5-72.5-1-87-34.6c-14.5-33.6,1-72.5,34.6-87
							C95,14.7,134,30.2,148.5,63.8z"/>
						<path class="st113" d="M147.1,62c15.5,32.8,1.4,71.9-31.4,87.4c-32.8,15.5-71.9,1.4-87.4-31.4c-15.5-32.8-1.4-71.9,31.4-87.4
							C92.5,15.1,131.6,29.2,147.1,62z"/>
						<path class="st113" d="M145.7,60.3c16.4,32,3.8,71.3-28.3,87.8c-32,16.4-71.3,3.8-87.7-28.3C13.3,87.7,25.9,48.4,58,32
							C90,15.6,129.3,28.2,145.7,60.3z"/>
						<path class="st113" d="M144.3,58.5c17.4,31.3,6.1,70.7-25.1,88.1c-31.3,17.4-70.7,6.1-88.1-25.1
							c-17.4-31.3-6.1-70.7,25.1-88.1C87.5,16,126.9,27.2,144.3,58.5z"/>
						<path class="st113" d="M142.9,56.8c18.4,30.5,8.5,70.1-22,88.5c-30.5,18.4-70.1,8.5-88.5-22c-18.4-30.5-8.5-70.1,22-88.5
							C85,16.4,124.6,26.3,142.9,56.8z"/>
						<path class="st113" d="M141.5,55c19.3,29.7,10.9,69.5-18.8,88.8C93,163.2,53.2,154.7,33.9,125C14.5,95.3,23,55.5,52.7,36.2
							C82.4,16.8,122.2,25.3,141.5,55z"/>
						<path class="st113" d="M140.1,53.3c20.3,29,13.3,68.9-15.7,89.2c-29,20.3-68.9,13.3-89.2-15.7C15,97.8,22,57.8,51,37.6
							C79.9,17.3,119.9,24.3,140.1,53.3z"/>
						<path class="st113" d="M138.8,51.5c21.3,28.2,15.6,68.3-12.6,89.5c-28.2,21.3-68.3,15.6-89.5-12.6
							C15.4,100.3,21,60.2,49.2,38.9C77.4,17.7,117.5,23.3,138.8,51.5z"/>
						<path class="st113" d="M137.4,49.8c22.2,27.4,18,67.7-9.4,89.9c-27.4,22.2-67.7,18-89.9-9.4c-22.2-27.4-18-67.7,9.4-89.9
							C74.9,18.1,115.1,22.3,137.4,49.8z"/>
						<path class="st113" d="M136,48c23.2,26.7,20.4,67.1-6.3,90.3c-26.7,23.2-67.1,20.4-90.3-6.3c-23.2-26.7-20.4-67.1,6.3-90.3
							C72.4,18.5,112.8,21.4,136,48z"/>
						<path class="st113" d="M134.6,46.3c24.2,25.9,22.8,66.5-3.1,90.6c-25.9,24.2-66.5,22.8-90.6-3.1C16.7,107.8,18.1,67.3,44,43.1
							C69.9,19,110.4,20.4,134.6,46.3z"/>
						<path class="st113" d="M133.2,44.5c25.1,25.1,25.1,65.9,0,91c-25.1,25.1-65.8,25.1-91,0c-25.1-25.1-25.1-65.8,0-91
							C67.3,19.4,108.1,19.4,133.2,44.5z"/>
					</g>
				</g>
			</g>
		</g>
	</g>
	<text transform="matrix(1.0654 0 0 1 47.144 125.0166)" class="st227 st228 st229">+</text>
</g>
<g id="DESIGNED_BY_FREEPIK">
</g>
</svg>
